%TF.GenerationSoftware,KiCad,Pcbnew,9.0.4*%
%TF.CreationDate,2025-12-21T15:35:54+05:30*%
%TF.ProjectId,FPGA_Mic_Input,46504741-5f4d-4696-935f-496e7075742e,rev?*%
%TF.SameCoordinates,Original*%
%TF.FileFunction,Soldermask,Bot*%
%TF.FilePolarity,Negative*%
%FSLAX46Y46*%
G04 Gerber Fmt 4.6, Leading zero omitted, Abs format (unit mm)*
G04 Created by KiCad (PCBNEW 9.0.4) date 2025-12-21 15:35:54*
%MOMM*%
%LPD*%
G01*
G04 APERTURE LIST*
G04 Aperture macros list*
%AMRoundRect*
0 Rectangle with rounded corners*
0 $1 Rounding radius*
0 $2 $3 $4 $5 $6 $7 $8 $9 X,Y pos of 4 corners*
0 Add a 4 corners polygon primitive as box body*
4,1,4,$2,$3,$4,$5,$6,$7,$8,$9,$2,$3,0*
0 Add four circle primitives for the rounded corners*
1,1,$1+$1,$2,$3*
1,1,$1+$1,$4,$5*
1,1,$1+$1,$6,$7*
1,1,$1+$1,$8,$9*
0 Add four rect primitives between the rounded corners*
20,1,$1+$1,$2,$3,$4,$5,0*
20,1,$1+$1,$4,$5,$6,$7,0*
20,1,$1+$1,$6,$7,$8,$9,0*
20,1,$1+$1,$8,$9,$2,$3,0*%
G04 Aperture macros list end*
%ADD10C,1.600000*%
%ADD11RoundRect,0.250000X-0.550000X-0.550000X0.550000X-0.550000X0.550000X0.550000X-0.550000X0.550000X0*%
%ADD12C,1.400000*%
%ADD13C,3.000000*%
%ADD14R,1.980000X3.960000*%
%ADD15O,1.980000X3.960000*%
%ADD16RoundRect,0.250000X0.600000X0.725000X-0.600000X0.725000X-0.600000X-0.725000X0.600000X-0.725000X0*%
%ADD17O,1.700000X1.950000*%
G04 APERTURE END LIST*
D10*
%TO.C,U1*%
X131592000Y-88646000D03*
X131592000Y-91186000D03*
X131592000Y-103886000D03*
X131592000Y-106426000D03*
X123972000Y-106426000D03*
X123972000Y-103886000D03*
X123972000Y-91186000D03*
D11*
X123972000Y-88646000D03*
%TD*%
D10*
%TO.C,U2*%
X142372000Y-88646000D03*
X142372000Y-91186000D03*
X142372000Y-103886000D03*
X142372000Y-106426000D03*
X134752000Y-106426000D03*
X134752000Y-103886000D03*
X134752000Y-91186000D03*
D11*
X134752000Y-88646000D03*
%TD*%
D10*
%TO.C,C1*%
X137160000Y-65030000D03*
X134660000Y-65030000D03*
%TD*%
%TO.C,C4*%
X123230000Y-79819000D03*
X125730000Y-79819000D03*
%TD*%
%TO.C,C5*%
X125730000Y-76269000D03*
X123230000Y-76269000D03*
%TD*%
D12*
%TO.C,R4*%
X125095000Y-151765000D03*
X132715000Y-151765000D03*
%TD*%
D10*
%TO.C,C6*%
X131298000Y-83375000D03*
X128798000Y-83375000D03*
%TD*%
%TO.C,C14*%
X131430000Y-112649000D03*
X128930000Y-112649000D03*
%TD*%
%TO.C,C7*%
X131278000Y-79819000D03*
X128778000Y-79819000D03*
%TD*%
D12*
%TO.C,R1*%
X143764000Y-83072000D03*
X136144000Y-83072000D03*
%TD*%
%TO.C,R_bias_3*%
X123825000Y-72009000D03*
X123825000Y-64389000D03*
%TD*%
%TO.C,R2*%
X143764000Y-79922000D03*
X136144000Y-79922000D03*
%TD*%
%TO.C,R7*%
X144043000Y-116255000D03*
X136423000Y-116255000D03*
%TD*%
%TO.C,R6*%
X144043000Y-119405000D03*
X136423000Y-119405000D03*
%TD*%
%TO.C,R_bias_2*%
X127000000Y-72009000D03*
X127000000Y-64389000D03*
%TD*%
D11*
%TO.C,U6*%
X145786000Y-126492000D03*
D10*
X145786000Y-129032000D03*
X145786000Y-141732000D03*
X145786000Y-144272000D03*
X153406000Y-144272000D03*
X153406000Y-141732000D03*
X153406000Y-129032000D03*
X153406000Y-126492000D03*
%TD*%
%TO.C,C16*%
X149118000Y-156083000D03*
X151618000Y-156083000D03*
%TD*%
%TO.C,C9*%
X125735000Y-119761000D03*
X123235000Y-119761000D03*
%TD*%
D12*
%TO.C,Rg4*%
X154203000Y-119355000D03*
X146583000Y-119355000D03*
%TD*%
%TO.C,Rg3*%
X154178000Y-76733000D03*
X146558000Y-76733000D03*
%TD*%
D10*
%TO.C,C3*%
X125730000Y-83369000D03*
X123230000Y-83369000D03*
%TD*%
D12*
%TO.C,R5*%
X125095000Y-154661000D03*
X132715000Y-154661000D03*
%TD*%
D10*
%TO.C,C15*%
X149044500Y-152527000D03*
X151544500Y-152527000D03*
%TD*%
D13*
%TO.C,J3*%
X154940000Y-68580000D03*
%TD*%
D12*
%TO.C,Rg6*%
X154203000Y-113055000D03*
X146583000Y-113055000D03*
%TD*%
%TO.C,R9*%
X125095000Y-157480000D03*
X132715000Y-157480000D03*
%TD*%
D10*
%TO.C,C13*%
X131450000Y-116205000D03*
X128950000Y-116205000D03*
%TD*%
%TO.C,C11*%
X131450000Y-119761000D03*
X128950000Y-119761000D03*
%TD*%
%TO.C,C12*%
X125755000Y-112667000D03*
X123255000Y-112667000D03*
%TD*%
D12*
%TO.C,R3*%
X143764000Y-76772000D03*
X136144000Y-76772000D03*
%TD*%
D10*
%TO.C,C10*%
X125755000Y-116205000D03*
X123255000Y-116205000D03*
%TD*%
%TO.C,C8*%
X131278000Y-76269000D03*
X128778000Y-76269000D03*
%TD*%
D12*
%TO.C,Rg2*%
X154178000Y-79883000D03*
X146558000Y-79883000D03*
%TD*%
%TO.C,R10*%
X125095000Y-148971000D03*
X132715000Y-148971000D03*
%TD*%
%TO.C,RBottom1*%
X139573000Y-68199000D03*
X147193000Y-68199000D03*
%TD*%
D11*
%TO.C,U5*%
X135006000Y-126492000D03*
D10*
X135006000Y-129032000D03*
X135006000Y-141732000D03*
X135006000Y-144272000D03*
X142626000Y-144272000D03*
X142626000Y-141732000D03*
X142626000Y-129032000D03*
X142626000Y-126492000D03*
%TD*%
D12*
%TO.C,Rg1*%
X154178000Y-83033000D03*
X146558000Y-83033000D03*
%TD*%
%TO.C,R_mic_1*%
X130175000Y-61595000D03*
X130175000Y-53975000D03*
%TD*%
%TO.C,RTop1*%
X147193000Y-65405000D03*
X139573000Y-65405000D03*
%TD*%
D11*
%TO.C,U3*%
X145532000Y-88646000D03*
D10*
X145532000Y-91186000D03*
X145532000Y-103886000D03*
X145532000Y-106426000D03*
X153152000Y-106426000D03*
X153152000Y-103886000D03*
X153152000Y-91186000D03*
X153152000Y-88646000D03*
%TD*%
D12*
%TO.C,R_mic_3*%
X123825000Y-61595000D03*
X123825000Y-53975000D03*
%TD*%
%TO.C,R_bias_1*%
X130175000Y-72009000D03*
X130175000Y-64389000D03*
%TD*%
%TO.C,R_mic_2*%
X127000000Y-61595000D03*
X127000000Y-53975000D03*
%TD*%
D11*
%TO.C,U4*%
X124226000Y-126492000D03*
D10*
X124226000Y-129032000D03*
X124226000Y-141732000D03*
X124226000Y-144272000D03*
X131846000Y-144272000D03*
X131846000Y-141732000D03*
X131846000Y-129032000D03*
X131846000Y-126492000D03*
%TD*%
D14*
%TO.C,J1*%
X134700000Y-45730000D03*
D15*
X139700000Y-45730000D03*
X144700000Y-45730000D03*
%TD*%
D10*
%TO.C,C2*%
X137140000Y-68453000D03*
X134640000Y-68453000D03*
%TD*%
D13*
%TO.C,J2*%
X154940000Y-59230000D03*
%TD*%
D16*
%TO.C,J4*%
X144105000Y-163576000D03*
D17*
X141605000Y-163576000D03*
X139105000Y-163576000D03*
X136605000Y-163576000D03*
X134105000Y-163576000D03*
X131605000Y-163576000D03*
%TD*%
D12*
%TO.C,Rg5*%
X154203000Y-116205000D03*
X146583000Y-116205000D03*
%TD*%
%TO.C,R8*%
X144043000Y-113105000D03*
X136423000Y-113105000D03*
%TD*%
M02*
