M48
; DRILL file {KiCad 9.0.4} date 2025-12-21T15:36:49+0530
; FORMAT={-:-/ absolute / inch / decimal}
; #@! TF.CreationDate,2025-12-21T15:36:49+05:30
; #@! TF.GenerationSoftware,Kicad,Pcbnew,9.0.4
; #@! TF.FileFunction,Plated,1,2,PTH
FMAT,2
INCH
; #@! TA.AperFunction,Plated,PTH,ViaDrill
T1C0.0118
; #@! TA.AperFunction,Plated,PTH,ComponentDrill
T2C0.0276
; #@! TA.AperFunction,Plated,PTH,ComponentDrill
T3C0.0315
; #@! TA.AperFunction,Plated,PTH,ComponentDrill
T4C0.0374
; #@! TA.AperFunction,Plated,PTH,ComponentDrill
T5C0.0520
; #@! TA.AperFunction,Plated,PTH,ComponentDrill
T6C0.0591
%
G90
G05
T1
X4.68Y-5.645
X4.7525Y-4.8875
X4.795Y-5.76
X4.795Y-5.915
X4.9Y-4.28
X4.91Y-4.5
X4.945Y-2.55
X4.95Y-2.925
X4.96Y-3.37
X4.96Y-4.835
X4.96Y-4.875
X4.98Y-4.35
X4.995Y-2.93
X5.01Y-3.05
X5.01Y-4.5
X5.05Y-4.51
X5.055Y-2.615
X5.055Y-4.28
X5.065Y-4.9
X5.115Y-2.935
X5.115Y-3.39
X5.125Y-1.9785
X5.125Y-2.075
X5.185Y-2.61
X5.2351Y-4.6349
X5.245Y-3.38
X5.245Y-3.74
X5.275Y-5.925
X5.315Y-5.8164
X5.315Y-5.915
X5.324Y-6.2214
X5.38Y-5.855
X5.4035Y-5.8035
X5.405Y-2.43
X5.41Y-3.34
X5.435Y-5.87
X5.4387Y-3.4137
X5.465Y-4.865
X5.495Y-6.21
X5.5325Y-6.2125
X5.535Y-4.825
X5.565Y-6.21
X5.58Y-5.8
X5.5896Y-5.8596
X5.63Y-4.64
X5.66Y-4.76
X5.67Y-3.465
X5.67Y-3.82
X5.67Y-4.905
X5.795Y-4.78
X5.795Y-5.865
X5.825Y-6.47
X5.855Y-6.355
X6.045Y-3.395
X6.045Y-6.43
X6.055Y-6.02
X6.075Y-4.35
X6.085Y-5.89
X6.115Y-3.96
X6.115Y-4.15
X6.16Y-5.305
T2
X4.875Y-2.125
X4.875Y-2.425
X4.875Y-2.535
X4.875Y-2.835
X4.925Y-5.865
X4.925Y-5.975
X4.925Y-6.089
X4.925Y-6.2
X5.0Y-2.125
X5.0Y-2.425
X5.0Y-2.535
X5.0Y-2.835
X5.125Y-2.125
X5.125Y-2.425
X5.125Y-2.535
X5.125Y-2.835
X5.225Y-5.865
X5.225Y-5.975
X5.225Y-6.089
X5.225Y-6.2
X5.36Y-3.0225
X5.36Y-3.1465
X5.36Y-3.2706
X5.371Y-4.453
X5.371Y-4.577
X5.371Y-4.701
X5.495Y-2.575
X5.495Y-2.685
X5.66Y-3.0225
X5.66Y-3.1465
X5.66Y-3.2706
X5.671Y-4.453
X5.671Y-4.577
X5.671Y-4.701
X5.77Y-3.021
X5.77Y-3.145
X5.77Y-3.269
X5.771Y-4.451
X5.771Y-4.575
X5.771Y-4.699
X5.795Y-2.575
X5.795Y-2.685
X6.07Y-3.021
X6.07Y-3.145
X6.07Y-3.269
X6.071Y-4.451
X6.071Y-4.575
X6.071Y-4.699
T3
X4.8516Y-3.0027
X4.8516Y-3.1425
X4.8516Y-3.2822
X4.8518Y-4.715
X4.8526Y-4.4357
X4.8526Y-4.575
X4.8808Y-3.49
X4.8808Y-3.59
X4.8808Y-4.09
X4.8808Y-4.19
X4.8908Y-4.98
X4.8908Y-5.08
X4.8908Y-5.58
X4.8908Y-5.68
X4.95Y-3.0027
X4.95Y-3.1425
X4.95Y-3.2822
X4.9502Y-4.715
X4.951Y-4.4357
X4.951Y-4.575
X5.07Y-3.0027
X5.07Y-3.1425
X5.0708Y-3.2825
X5.076Y-4.435
X5.0768Y-4.575
X5.0768Y-4.715
X5.1684Y-3.0027
X5.1684Y-3.1425
X5.1692Y-3.2825
X5.1744Y-4.435
X5.1752Y-4.575
X5.1752Y-4.715
X5.1808Y-3.49
X5.1808Y-3.59
X5.1808Y-4.09
X5.1808Y-4.19
X5.1908Y-4.98
X5.1908Y-5.08
X5.1908Y-5.58
X5.1908Y-5.68
X5.3008Y-2.695
X5.3016Y-2.5602
X5.3052Y-3.49
X5.3052Y-3.59
X5.3052Y-4.09
X5.3052Y-4.19
X5.3152Y-4.98
X5.3152Y-5.08
X5.3152Y-5.58
X5.3152Y-5.68
X5.3992Y-2.695
X5.4Y-2.5602
X5.6052Y-3.49
X5.6052Y-3.59
X5.6052Y-4.09
X5.6052Y-4.19
X5.6152Y-4.98
X5.6152Y-5.08
X5.6152Y-5.58
X5.6152Y-5.68
X5.7296Y-3.49
X5.7296Y-3.59
X5.7296Y-4.09
X5.7296Y-4.19
X5.7396Y-4.98
X5.7396Y-5.08
X5.7396Y-5.58
X5.7396Y-5.68
X5.8679Y-6.005
X5.8708Y-6.145
X5.9663Y-6.005
X5.9692Y-6.145
X6.0296Y-3.49
X6.0296Y-3.59
X6.0296Y-4.09
X6.0296Y-4.19
X6.0396Y-4.98
X6.0396Y-5.08
X6.0396Y-5.58
X6.0396Y-5.68
T4
X5.1813Y-6.44
X5.2797Y-6.44
X5.3781Y-6.44
X5.4766Y-6.44
X5.575Y-6.44
X5.6734Y-6.44
T5
X5.3031Y-1.8004
X5.5Y-1.8004
X5.6969Y-1.8004
T6
X6.1Y-2.3319
X6.1Y-2.7
M30
